# 3ds Max Wavefront OBJ Exporter v0.97b - (c)2007 guruware
# 创建的文件:06.06.2018 13:00:21

mtllib Pyramid.mtl

#
# object F01
#

v  -500.0000 25.0000 500.0000
v  500.0000 25.0000 500.0000
v  500.0000 25.0000 -500.0000
v  -500.0000 25.0000 -500.0000
v  -404.0825 216.8351 404.0825
v  404.0825 216.8351 404.0825
v  404.0825 216.8351 -404.0825
v  -404.0825 216.8351 -404.0825
# 8 vertices

vn 0.0000 0.4472 0.8944
vn 0.0000 0.4472 0.8944
vn 0.0000 0.4472 0.8944
vn 0.0000 0.4472 0.8944
vn 0.0000 0.4472 0.8944
vn 0.0000 0.4472 0.8944
vn 0.8944 0.4472 -0.0000
vn 0.8944 0.4472 -0.0000
vn 0.8944 0.4472 -0.0000
vn 0.8944 0.4472 -0.0000
vn 0.8944 0.4472 -0.0000
vn 0.8944 0.4472 -0.0000
vn 0.0000 0.4472 -0.8944
vn 0.0000 0.4472 -0.8944
vn 0.0000 0.4472 -0.8944
vn 0.0000 0.4472 -0.8944
vn 0.0000 0.4472 -0.8944
vn 0.0000 0.4472 -0.8944
vn -0.8944 0.4472 -0.0000
vn -0.8944 0.4472 -0.0000
vn -0.8944 0.4472 -0.0000
vn -0.8944 0.4472 -0.0000
vn -0.8944 0.4472 -0.0000
vn -0.8944 0.4472 -0.0000
vn 0.0000 -1.0000 -0.0000
vn 0.0000 -1.0000 -0.0000
vn 0.0000 -1.0000 -0.0000
vn 0.0000 -1.0000 -0.0000
vn 0.0000 -1.0000 -0.0000
vn 0.0000 -1.0000 -0.0000
vn 0.0000 1.0000 -0.0000
vn 0.0000 1.0000 -0.0000
vn 0.0000 1.0000 -0.0000
vn 0.0000 1.0000 -0.0000
vn 0.0000 1.0000 -0.0000
vn 0.0000 1.0000 -0.0000
# 36 vertex normals

vt 0.0624 0.2733 0.0000
vt 0.0183 0.1852 0.0000
vt 0.4777 0.1852 0.0000
vt 0.4336 0.2733 0.0000
vt 0.0624 0.2735 0.0000
vt 0.0183 0.1854 0.0000
vt 0.4777 0.1854 0.0000
vt 0.4336 0.2735 0.0000
vt 0.0624 0.2735 0.0000
vt 0.0183 0.1853 0.0000
vt 0.4777 0.1853 0.0000
vt 0.4336 0.2735 0.0000
vt 0.0635 0.2733 0.0000
vt 0.0195 0.1854 0.0000
vt 0.4780 0.1854 0.0000
vt 0.4340 0.2733 0.0000
vt 0.4772 0.1150 0.0000
vt 0.4772 0.2215 0.0000
vt 0.3707 0.2215 0.0000
vt 0.3707 0.1150 0.0000
vt 0.0100 0.2441 0.0000
vt 0.0100 0.1125 0.0000
vt 0.1416 0.1125 0.0000
vt 0.1416 0.2441 0.0000
# 24 texture coords

g F01
usemtl caizhi
s 4
f 2/15/1 6/16/2 5/13/3 
f 5/13/4 1/14/5 2/15/6 
s 2
f 3/3/7 7/4/8 6/1/9 
f 6/1/10 2/2/11 3/3/12 
s 16
f 4/11/13 8/12/14 7/9/15 
f 7/9/16 3/10/17 4/11/18 
s 32
f 1/7/19 5/8/20 8/5/21 
f 8/5/22 4/6/23 1/7/24 
s 8
f 4/22/25 3/23/26 2/24/27 
f 2/24/28 1/21/29 4/22/30 
s off
f 7/18/31 8/19/32 5/20/33 
f 5/20/34 6/17/35 7/18/36 
# 12 faces

#
# object F02
#

v  -395.9175 233.1650 395.9175
v  395.9175 233.1650 395.9175
v  395.9175 233.1650 -395.9175
v  -395.9175 233.1650 -395.9175
v  -304.0825 416.8351 304.0825
v  304.0825 416.8351 304.0825
v  304.0825 416.8351 -304.0825
v  -304.0825 416.8351 -304.0825
# 8 vertices

vn 0.0000 0.4472 0.8944
vn 0.0000 0.4472 0.8944
vn 0.0000 0.4472 0.8944
vn 0.0000 0.4472 0.8944
vn 0.0000 0.4472 0.8944
vn 0.0000 0.4472 0.8944
vn 0.8944 0.4472 -0.0000
vn 0.8944 0.4472 -0.0000
vn 0.8944 0.4472 -0.0000
vn 0.8944 0.4472 -0.0000
vn 0.8944 0.4472 -0.0000
vn 0.8944 0.4472 -0.0000
vn 0.0000 0.4472 -0.8944
vn 0.0000 0.4472 -0.8944
vn 0.0000 0.4472 -0.8944
vn 0.0000 0.4472 -0.8944
vn 0.0000 0.4472 -0.8944
vn 0.0000 0.4472 -0.8944
vn -0.8944 0.4472 -0.0000
vn -0.8944 0.4472 -0.0000
vn -0.8944 0.4472 -0.0000
vn -0.8944 0.4472 -0.0000
vn -0.8944 0.4472 -0.0000
vn -0.8944 0.4472 -0.0000
vn 0.0000 -1.0000 -0.0000
vn 0.0000 -1.0000 -0.0000
vn 0.0000 -1.0000 -0.0000
vn 0.0000 -1.0000 -0.0000
vn 0.0000 -1.0000 -0.0000
vn 0.0000 -1.0000 -0.0000
vn 0.0000 1.0000 -0.0000
vn 0.0000 1.0000 -0.0000
vn 0.0000 1.0000 -0.0000
vn 0.0000 1.0000 -0.0000
vn 0.0000 1.0000 -0.0000
vn 0.0000 1.0000 -0.0000
# 36 vertex normals

vt 0.9002 0.4402 0.0000
vt 0.5869 0.6179 0.0000
vt 0.9002 0.3527 0.0000
vt 0.5873 0.6182 0.0000
vt 0.5333 0.5106 0.0000
vt 0.8753 0.3411 0.0000
vt 0.8753 0.4496 0.0000
vt 0.5873 0.6176 0.0000
vt 0.7668 0.4496 0.0000
vt 0.5873 0.6188 0.0000
vt 0.7668 0.3411 0.0000
vt 0.5338 0.5112 0.0000
vt 0.5338 0.5106 0.0000
vt 0.9877 0.3527 0.0000
vt 0.5338 0.5118 0.0000
vt 0.9877 0.4402 0.0000
vt 0.9951 0.5106 0.0000
vt 0.9416 0.6176 0.0000
vt 0.9951 0.5112 0.0000
vt 0.9416 0.6182 0.0000
vt 0.9951 0.5118 0.0000
vt 0.9416 0.6188 0.0000
vt 0.9960 0.5106 0.0000
vt 0.9423 0.6179 0.0000
# 24 texture coords

g F02
usemtl caizhi
s 4
f 10/47/37 14/48/38 13/26/39 
f 13/26/40 9/29/41 10/47/42 
s 2
f 11/41/43 15/42/44 14/32/45 
f 14/32/46 10/37/47 11/41/48 
s 16
f 12/45/49 16/46/50 15/34/51 
f 15/34/52 11/39/53 12/45/54 
s 32
f 9/43/55 13/44/56 16/28/57 
f 16/28/58 12/36/59 9/43/60 
s off
f 12/27/61 11/38/62 10/40/63 
f 10/40/64 9/25/65 12/27/66 
f 15/31/67 16/33/68 13/35/69 
f 13/35/70 14/30/71 15/31/72 
# 12 faces

#
# object F03
#

v  -295.9175 433.1650 295.9175
v  295.9175 433.1650 295.9175
v  295.9175 433.1650 -295.9175
v  -295.9175 433.1650 -295.9175
v  -204.0825 616.8350 204.0825
v  204.0825 616.8350 204.0825
v  204.0825 616.8350 -204.0825
v  -204.0825 616.8350 -204.0825
# 8 vertices

vn 0.0000 0.4472 0.8944
vn 0.0000 0.4472 0.8944
vn 0.0000 0.4472 0.8944
vn 0.0000 0.4472 0.8944
vn 0.0000 0.4472 0.8944
vn 0.0000 0.4472 0.8944
vn 0.8944 0.4472 -0.0000
vn 0.8944 0.4472 -0.0000
vn 0.8944 0.4472 -0.0000
vn 0.8944 0.4472 -0.0000
vn 0.8944 0.4472 -0.0000
vn 0.8944 0.4472 -0.0000
vn 0.0000 0.4472 -0.8944
vn 0.0000 0.4472 -0.8944
vn 0.0000 0.4472 -0.8944
vn 0.0000 0.4472 -0.8944
vn 0.0000 0.4472 -0.8944
vn 0.0000 0.4472 -0.8944
vn -0.8944 0.4472 -0.0000
vn -0.8944 0.4472 -0.0000
vn -0.8944 0.4472 -0.0000
vn -0.8944 0.4472 -0.0000
vn -0.8944 0.4472 -0.0000
vn -0.8944 0.4472 -0.0000
vn 0.0000 -1.0000 -0.0000
vn 0.0000 -1.0000 -0.0000
vn 0.0000 -1.0000 -0.0000
vn 0.0000 -1.0000 -0.0000
vn 0.0000 -1.0000 -0.0000
vn 0.0000 -1.0000 -0.0000
vn 0.0000 1.0000 -0.0000
vn 0.0000 1.0000 -0.0000
vn 0.0000 1.0000 -0.0000
vn 0.0000 1.0000 -0.0000
vn 0.0000 1.0000 -0.0000
vn 0.0000 1.0000 -0.0000
# 36 vertex normals

vt 0.2626 0.4526 0.0000
vt 0.1028 0.6382 0.0000
vt 0.2626 0.3385 0.0000
vt 0.1030 0.6383 0.0000
vt 0.0355 0.5037 0.0000
vt 0.4931 0.3394 0.0000
vt 0.4931 0.4494 0.0000
vt 0.1030 0.6371 0.0000
vt 0.3831 0.4494 0.0000
vt 0.1030 0.6383 0.0000
vt 0.3831 0.3394 0.0000
vt 0.0358 0.5037 0.0000
vt 0.0358 0.5025 0.0000
vt 0.3767 0.3385 0.0000
vt 0.0358 0.5037 0.0000
vt 0.3767 0.4526 0.0000
vt 0.4693 0.5025 0.0000
vt 0.4020 0.6371 0.0000
vt 0.4693 0.5037 0.0000
vt 0.4020 0.6383 0.0000
vt 0.4693 0.5037 0.0000
vt 0.4020 0.6383 0.0000
vt 0.4690 0.5037 0.0000
vt 0.4017 0.6382 0.0000
# 24 texture coords

g F03
usemtl caizhi
s 4
f 18/71/73 22/72/74 21/50/75 
f 21/50/76 17/53/77 18/71/78 
s 2
f 19/65/79 23/66/80 22/56/81 
f 22/56/82 18/61/83 19/65/84 
s 16
f 20/69/85 24/70/86 23/58/87 
f 23/58/88 19/63/89 20/69/90 
s 32
f 17/67/91 21/68/92 24/52/93 
f 24/52/94 20/60/95 17/67/96 
s off
f 20/51/97 19/62/98 18/64/99 
f 18/64/100 17/49/101 20/51/102 
f 23/55/103 24/57/104 21/59/105 
f 21/59/106 22/54/107 23/55/108 
# 12 faces

#
# object F04
#

v  -195.9175 633.1650 195.9175
v  195.9175 633.1650 195.9175
v  195.9175 633.1650 -195.9175
v  -195.9175 633.1650 -195.9175
v  -104.0825 816.8350 104.0825
v  104.0825 816.8350 104.0825
v  104.0825 816.8350 -104.0825
v  -104.0825 816.8350 -104.0825
# 8 vertices

vn 0.0000 0.4472 0.8944
vn 0.0000 0.4472 0.8944
vn 0.0000 0.4472 0.8944
vn 0.0000 0.4472 0.8944
vn 0.0000 0.4472 0.8944
vn 0.0000 0.4472 0.8944
vn 0.8944 0.4472 -0.0000
vn 0.8944 0.4472 -0.0000
vn 0.8944 0.4472 -0.0000
vn 0.8944 0.4472 -0.0000
vn 0.8944 0.4472 -0.0000
vn 0.8944 0.4472 -0.0000
vn 0.0000 0.4472 -0.8944
vn 0.0000 0.4472 -0.8944
vn 0.0000 0.4472 -0.8944
vn 0.0000 0.4472 -0.8944
vn 0.0000 0.4472 -0.8944
vn 0.0000 0.4472 -0.8944
vn -0.8944 0.4472 -0.0000
vn -0.8944 0.4472 -0.0000
vn -0.8944 0.4472 -0.0000
vn -0.8944 0.4472 -0.0000
vn -0.8944 0.4472 -0.0000
vn -0.8944 0.4472 -0.0000
vn 0.0000 -1.0000 -0.0000
vn 0.0000 -1.0000 -0.0000
vn 0.0000 -1.0000 -0.0000
vn 0.0000 -1.0000 -0.0000
vn 0.0000 -1.0000 -0.0000
vn 0.0000 -1.0000 -0.0000
vn 0.0000 1.0000 -0.0000
vn 0.0000 1.0000 -0.0000
vn 0.0000 1.0000 -0.0000
vn 0.0000 1.0000 -0.0000
vn 0.0000 1.0000 -0.0000
vn 0.0000 1.0000 -0.0000
# 36 vertex normals

vt 0.8760 0.7839 0.0000
vt 0.6437 0.9937 0.0000
vt 0.8760 0.6747 0.0000
vt 0.6441 0.9916 0.0000
vt 0.5414 0.7891 0.0000
vt 0.8627 0.6722 0.0000
vt 0.8627 0.7825 0.0000
vt 0.6441 0.9915 0.0000
vt 0.7523 0.7825 0.0000
vt 0.6441 0.9929 0.0000
vt 0.7523 0.6722 0.0000
vt 0.5420 0.7873 0.0000
vt 0.5420 0.7873 0.0000
vt 0.9852 0.6747 0.0000
vt 0.5420 0.7887 0.0000
vt 0.9852 0.7839 0.0000
vt 0.9777 0.7873 0.0000
vt 0.8756 0.9915 0.0000
vt 0.9777 0.7873 0.0000
vt 0.8756 0.9916 0.0000
vt 0.9777 0.7887 0.0000
vt 0.8756 0.9929 0.0000
vt 0.9778 0.7891 0.0000
vt 0.8756 0.9937 0.0000
# 24 texture coords

g F04
usemtl caizhi
s 4
f 26/95/109 30/96/110 29/74/111 
f 29/74/112 25/77/113 26/95/114 
s 2
f 27/89/115 31/90/116 30/80/117 
f 30/80/118 26/85/119 27/89/120 
s 16
f 28/93/121 32/94/122 31/82/123 
f 31/82/124 27/87/125 28/93/126 
s 32
f 25/91/127 29/92/128 32/76/129 
f 32/76/130 28/84/131 25/91/132 
s off
f 28/75/133 27/86/134 26/88/135 
f 26/88/136 25/73/137 28/75/138 
f 31/79/139 32/81/140 29/83/141 
f 29/83/142 30/78/143 31/79/144 
# 12 faces

#
# object F05
#

v  0.0000 1025.0000 -0.0000
v  -95.9175 833.1650 95.9175
v  95.9175 833.1650 95.9175
v  95.9175 833.1650 -95.9175
v  -95.9175 833.1650 -95.9175
# 5 vertices

vn 0.0000 0.4472 0.8944
vn 0.0000 0.4472 0.8944
vn 0.0000 0.4472 0.8944
vn 0.8944 0.4472 -0.0000
vn 0.8944 0.4472 -0.0000
vn 0.8944 0.4472 -0.0000
vn 0.0000 0.4472 -0.8944
vn 0.0000 0.4472 -0.8944
vn 0.0000 0.4472 -0.8944
vn -0.8944 0.4472 -0.0000
vn -0.8944 0.4472 -0.0000
vn -0.8944 0.4472 -0.0000
vn 0.0000 -1.0000 -0.0000
vn 0.0000 -1.0000 -0.0000
vn 0.0000 -1.0000 -0.0000
vn 0.0000 -1.0000 -0.0000
vn 0.0000 -1.0000 -0.0000
vn 0.0000 -1.0000 -0.0000
# 18 vertex normals

vt 0.3290 0.9918 0.0000
vt 0.0181 0.9966 0.0000
vt 0.1846 0.7029 0.0000
vt 0.0181 0.8362 0.0000
vt 0.3291 0.9902 0.0000
vt 0.1855 0.7031 0.0000
vt 0.3291 0.9912 0.0000
vt 0.1785 0.8362 0.0000
vt 0.3291 0.9902 0.0000
vt 0.1785 0.9966 0.0000
vt 0.1855 0.7031 0.0000
vt 0.4727 0.7031 0.0000
vt 0.4727 0.7031 0.0000
vt 0.1855 0.7021 0.0000
vt 0.4727 0.7021 0.0000
vt 0.4735 0.7029 0.0000
# 16 texture coords

g F05
usemtl caizhi
s 4
f 33/97/145 34/99/146 35/112/147 
s 2
f 33/103/148 35/107/149 36/108/150 
s 16
f 33/105/151 36/110/152 37/111/153 
s 32
f 33/101/154 37/102/155 34/109/156 
s off
f 37/100/157 36/104/158 35/106/159 
f 35/106/160 34/98/161 37/100/162 
# 6 faces

#
# object base
#

v  -625.0000 0.0000 625.0000
v  625.0000 0.0000 625.0000
v  -625.0000 0.0000 -625.0000
v  625.0000 0.0000 -625.0000
v  -625.0000 25.0000 625.0000
v  625.0000 25.0000 625.0000
v  -625.0000 25.0000 -625.0000
v  625.0000 25.0000 -625.0000
# 8 vertices

vn 0.0000 1.0000 -0.0000
vn 0.0000 1.0000 -0.0000
vn 0.0000 1.0000 -0.0000
vn 0.0000 1.0000 -0.0000
vn 0.0000 1.0000 -0.0000
vn 0.0000 1.0000 -0.0000
vn 0.0000 0.0000 1.0000
vn 0.0000 0.0000 1.0000
vn 0.0000 0.0000 1.0000
vn 0.0000 0.0000 1.0000
vn 0.0000 0.0000 1.0000
vn 0.0000 0.0000 1.0000
vn 1.0000 0.0000 -0.0000
vn 1.0000 0.0000 -0.0000
vn 1.0000 0.0000 -0.0000
vn 1.0000 0.0000 -0.0000
vn 1.0000 0.0000 -0.0000
vn 1.0000 0.0000 -0.0000
vn 0.0000 0.0000 -1.0000
vn 0.0000 0.0000 -1.0000
vn 0.0000 0.0000 -1.0000
vn 0.0000 0.0000 -1.0000
vn 0.0000 0.0000 -1.0000
vn 0.0000 0.0000 -1.0000
vn -1.0000 0.0000 -0.0000
vn -1.0000 0.0000 -0.0000
vn -1.0000 0.0000 -0.0000
vn -1.0000 0.0000 -0.0000
vn -1.0000 0.0000 -0.0000
vn -1.0000 0.0000 -0.0000
# 30 vertex normals

vt 0.5459 0.1094 0.0000
vt 0.7545 0.1094 0.0000
vt 0.7545 0.3180 0.0000
vt 0.5459 0.3180 0.0000
vt 0.9900 0.0447 0.0000
vt 0.5025 0.0447 0.0000
vt 0.5025 0.0349 0.0000
vt 0.9900 0.0349 0.0000
vt 0.9900 0.0946 0.0000
vt 0.5025 0.0946 0.0000
vt 0.5025 0.0848 0.0000
vt 0.9900 0.0848 0.0000
vt 0.9900 0.0197 0.0000
vt 0.5025 0.0197 0.0000
vt 0.5025 0.0100 0.0000
vt 0.9900 0.0100 0.0000
vt 0.9900 0.0696 0.0000
vt 0.5025 0.0696 0.0000
vt 0.5025 0.0599 0.0000
vt 0.9900 0.0599 0.0000
# 20 texture coords

g base
usemtl caizhi
s 4
f 42/113/163 43/114/164 45/115/165 
f 45/115/166 44/116/167 42/113/168 
s 8
f 38/117/169 39/118/170 43/119/171 
f 43/119/172 42/120/173 38/117/174 
s 16
f 39/121/175 41/122/176 45/123/177 
f 45/123/178 43/124/179 39/121/180 
s 32
f 41/125/181 40/126/182 44/127/183 
f 44/127/184 45/128/185 41/125/186 
s 64
f 40/129/187 38/130/188 42/131/189 
f 42/131/190 44/132/191 40/129/192 
# 10 faces

#
# object ground
#

v  -625.0000 0.0000 625.0000
v  625.0000 0.0000 625.0000
v  -625.0000 0.0000 -625.0000
v  625.0000 0.0000 -625.0000
# 4 vertices

vn 0.0000 1.0000 -0.0000
vn 0.0000 1.0000 -0.0000
vn 0.0000 1.0000 -0.0000
vn 0.0000 1.0000 -0.0000
vn 0.0000 1.0000 -0.0000
vn 0.0000 1.0000 -0.0000
# 6 vertex normals

vt 0.8872 0.2227 0.0000
vt 0.9934 0.2227 0.0000
vt 0.8872 0.3289 0.0000
vt 0.9934 0.3289 0.0000
# 4 texture coords

g ground
usemtl caizhi
s 1
f 46/133/193 47/134/194 49/136/195 
f 49/136/196 48/135/197 46/133/198 
# 2 faces

